<?xml version="1.0" encoding="UTF-8" standalone="no"?>
<svg
   xmlns:dc="http://purl.org/dc/elements/1.1/"
   xmlns:cc="http://creativecommons.org/ns#"
   xmlns:rdf="http://www.w3.org/1999/02/22-rdf-syntax-ns#"
   xmlns:svg="http://www.w3.org/2000/svg"
   xmlns="http://www.w3.org/2000/svg"
   xmlns:sodipodi="http://sodipodi.sourceforge.net/DTD/sodipodi-0.dtd"
   xmlns:inkscape="http://www.inkscape.org/namespaces/inkscape"
   viewBox="0 0 512 512"
   style="height: 128px; width: 128px;"
   id="svg2"
   version="1.1"
   inkscape:version="0.91 r13725"
   sodipodi:docname="nature.svg">
  <metadata
     id="metadata19">
    <rdf:RDF>
      <cc:Work
         rdf:about="">
        <dc:format>image/svg+xml</dc:format>
        <dc:type
           rdf:resource="http://purl.org/dc/dcmitype/StillImage" />
      </cc:Work>
    </rdf:RDF>
  </metadata>
  <sodipodi:namedview
     pagecolor="#ffffff"
     bordercolor="#666666"
     borderopacity="1"
     objecttolerance="10"
     gridtolerance="10"
     guidetolerance="10"
     inkscape:pageopacity="0"
     inkscape:pageshadow="2"
     inkscape:window-width="664"
     inkscape:window-height="480"
     id="namedview17"
     showgrid="false"
     inkscape:zoom="0.4609375"
     inkscape:cx="256"
     inkscape:cy="256"
     inkscape:window-x="0"
     inkscape:window-y="0"
     inkscape:window-maximized="0"
     inkscape:current-layer="svg2" />
  <defs
     id="defs4">
    <radialGradient
       id="gradient-1">
      <stop
         offset="0%"
         stop-color="#b8e986"
         stop-opacity="1"
         id="stop7" />
      <stop
         offset="100%"
         stop-color="#7ed321"
         stop-opacity="1"
         id="stop9" />
    </radialGradient>
  </defs>
  <g
     class=""
     style="touch-action:none;stroke:#000000;stroke-opacity:1;stroke-width:10;stroke-miterlimit:4;stroke-dasharray:none"
     transform="translate(3,6)"
     id="g13">
    <path
       fill="url(#gradient-1)"
       d="M245.003 21.882c-166.998.752-303.014 211.052-130.59 381.17 8.035 25.41 42.784 41.465 94.91 57.862 37.832 11.993 50.783-4.965 42.102-27.322-37.478-96.526-122.616-93.237-128.593-102.07C19.647 179.044 185.37 34.12 321.578 99.659c154.92 74.51 93.159 218.387 5.099 279.26-33.979 23.392-54.793 53.902-43.615 84.13 5.99 16.174 34.958 29.057 45.928 26.818 8.658-1.764-36.293-26.3-8.303-55.948 22.237-23.66 89.603-37.464 125.124-103.51 67.453-125.152 28.701-238.4-130.697-296.26-12.156-4.374-24.254-7.519-36.38-9.55a199.684 199.684 0 0 0-33.73-2.716zm11.434 80.2s-28.375 30.73-27.871 62.145c.03 6.434 1.304 12.957 3.231 19.139 10.2 12.01 18.472 25.93 25.648 41.036 7.086-18.501 16.129-34.364 27.367-47.29.711-3.9 1.096-7.74 1.096-11.625-.415-31.398-29.471-63.405-29.471-63.405zm114.657 53.941c-53.459 3.158-88.03 51.295-108.637 93.234-.89 1.912-7.449 2.436-8.6.46-15.21-27.53-24.758-48.212-43.555-63.807-17.79-14.795-40.236-23.601-70.45-23.764 1.305 11.993 7 44.86 30.808 63.08 8.125 6.24 19.924 9.474 31.904 12.245 11.92 2.684 24.163 4.803 33.503 10.348 7.531 4.477 12.334 11.475 14.618 19.614 2.283 8.108 2.224 17.314.475 27.07-2.937 16.945-10.912 35.58-21.557 52.747 0 0 31.488 13.12 37.093 62.636 10.436-25.351 32.407-39.849 32.407-39.849-11.563-16.442-27.99-58.99-31.903-75.712-2.165-9.62-2.847-18.769-1.068-26.997 1.75-8.212 6.079-15.505 13.343-20.383 9.014-6.035 21.022-8.822 32.852-12.2 11.86-3.397 23.394-7.37 31.34-14.1 14.054-12.008 21.05-29.25 24.46-43.718 1.661-7.25 2.521-13.715 2.847-18.31.12-1.127.09-1.72.12-2.594zM157.973 387.005c9.72.266 35.546 20.438 28.251 21.939-31.767 6.533-35.988-13.624-31.287-20.722.588-.887 1.647-1.254 3.036-1.217z"
       transform="translate(25.6, 25.6) scale(0.9, 0.9) rotate(0, 256, 256)"
       id="path15"
       style="stroke:#000000;stroke-opacity:1;stroke-width:11.11111111;stroke-miterlimit:4;stroke-dasharray:none" />
  </g>
  <!-- react-empty: 6 -->
</svg>
